<?xml version="1.0" encoding="UTF-8"?>
<!DOCTYPE svg PUBLIC "-//W3C//DTD SVG 1.1//EN" "http://www.w3.org/Graphics/SVG/1.1/DTD/svg11.dtd">
<!-- Creator: CorelDRAW 2018 -->
<svg xmlns="http://www.w3.org/2000/svg" xml:space="preserve" width="210mm" height="297mm" version="1.1" style="shape-rendering:geometricPrecision; text-rendering:geometricPrecision; image-rendering:optimizeQuality; fill-rule:evenodd; clip-rule:evenodd"
viewBox="0 0 21000 29700"
 xmlns:xlink="http://www.w3.org/1999/xlink">
 <defs>
  <style type="text/css">
   <![CDATA[
    .fil0 {fill:#FEFEFE;fill-rule:nonzero}
   ]]>
  </style>
 </defs>
 <g id="Layer_x0020_1">
  <metadata id="CorelCorpID_0Corel-Layer"/>
  <path class="fil0" d="M9768.79 16317.36l123.71 0 0 -108 -123.71 0 0 108zm4115.7 -1038.53l0 0 -123.44 0 0 107.84 123.44 0 0 -107.84zm-2533.75 961.77l0 0 123.54 0 0 -107.93 -123.54 0 0 107.93zm399.01 -316.84l0 0c0,1.17 0,-1.45 0,0zm-2195.59 393.6l0 0 123.73 0 0 -108 -123.73 0 0 108zm1791.96 -801.98l0 0c-75.9,0 -149.62,16.26 -208.71,45.33l0 210.12 123.44 0 0 -157.78c0,0 33.07,-18.81 91.43,-18.81 126.48,0 260.32,118.64 260.32,336.37 0,2.42 -0.55,18.92 -3.52,31.49l-569.16 0 0.48 -29.07c0,-245.85 -166.05,-417.65 -403.97,-417.65 -75.73,0 -149.47,16.26 -208.56,45.33l0 210.12 123.4 0 0 -157.78c0,0 33.14,-18.81 91.57,-18.81 126.15,0 260.17,118.64 260.17,336.37l-0.31 31.49 -598.23 0 0 -494.89 -111.28 0c-301.36,0 -310.52,154.24 -310.52,335.9l0 160.89c0,88.95 -31.63,106.42 -79.65,106.42l-96.07 0c-61.89,0 -163.31,-9.79 -163.31,-232.17 0,-187.89 82.78,-270.51 246.93,-269.13l0 -73.59c-126.49,0.31 -206.3,24.19 -279.75,95.19 -63.44,61.32 -90.74,145.07 -90.74,249.77 0,230.31 102.14,308.51 240.88,308.51l173.67 0.24c110.43,0 171.6,-69.87 171.6,-196.68l0 -165.54c0,-156.34 23.13,-241.22 174.87,-241.22l0 494.88 1553.97 0c12.99,-53.22 14.68,-116.92 14.68,-116.92 -4.65,-240.16 -169.33,-408.38 -403.63,-408.38zm2235.96 143.07l0 0c0,121.85 84.99,200.61 228.79,200.61l87.4 0 0 11.3c0,60.25 -28.08,91.74 -81.34,91.74l-373.34 0c-154.21,0 -211.36,-42.99 -211.36,-168.53l0 -241.36 -123.61 0 0 261.07c0,175.8 81.16,227.4 315.57,227.4l421.89 0c56.91,0 99.73,-19.84 131.05,-60.59 27.63,-35.63 41.86,-80.38 41.86,-133.43l0 -379.45 -191.65 0c-167.3,0 -245.26,63.22 -245.26,191.24zm313.16 -112.48l0 0 0 241.19 -51.57 0c-38.11,0 -140.57,-10.89 -140.57,-123.26 0,-77.35 44.2,-117.93 134.74,-117.93l57.4 0zm-2026.77 494.71l0 0 123.74 0 0 -832.85 -123.74 0 0 832.85zm3803.47 -420.02l0 0c-112.17,-100.39 -331.11,-64.67 -400.59,-51.54l0 392.98 -117.51 0c2.48,-11.06 4.89,-38.2 4.89,-38.2 16.22,-208.22 -105.15,-324.84 -275.82,-324.84 -132.87,0 -252.8,84.68 -338.99,201.64l-18.02 27.77 0 -205.71 -123.37 0 0 225.1c0,78.14 -26.25,114.24 -83.1,114.24l-58.19 0 0 -409.89 -123.78 0 0 493.23c0,70.42 0.35,106.76 -21.12,146.79 -10.64,20.43 -31.86,39.38 -56.29,46.86 0,7.92 0,26.63 0,38.89 140.35,-3.27 201.19,-74.38 201.19,-237.3l1199.52 0c164.19,0 278.74,-95.87 278.74,-242.94 0,-73.8 -18.91,-133.22 -67.56,-177.08zm-634.82 296.21l0 0c0,0.79 -5.31,45.23 -5.31,45.23l-479.25 0 8.65 -15.53c90.54,-177.19 202.12,-259.08 326.9,-253.7 109.04,4.65 159.34,98.63 149.01,224zm402.73 45.23l0 0 -44.89 0 0 -320.39c0,0 13.92,-5.03 43.68,-5.03 114.59,0 177.25,60.67 177.25,163.3 0,101.28 -74.14,162.12 -176.04,162.12zm-2837.14 78.58l0 0 123.33 0 0 -832.85 -123.33 0 0 832.85zm-242.08 -195.06l0 0c0,96.6 -45.16,116.48 -83.09,116.48l-43.24 0 0 -409.89 -123.44 0 0 493.23c0,70.42 0.24,106.76 -21.05,146.79 -10.64,20.43 -32.11,39.38 -56.29,46.86 0,7.92 0,26.63 0,38.89 140.25,-3.27 200.78,-74.38 200.78,-237.3l73.24 0c58.19,0 101.91,-20.22 133.77,-62.01 28.36,-36.45 42.83,-82.23 42.83,-136.49 0,0 0,-599.04 0,-634.35l-123.51 0c0,35.31 0,637.79 0,637.79z"/>
  <path class="fil0" d="M16611.28 13468.97l0 2762.02 2614.75 0 0 -2762.02 -2614.75 0zm2434.71 2571.71l0 0 -2254.67 0 0 -2381.47 2254.67 0 0 2381.47z"/>
  <path class="fil0" d="M17472.48 14230.68l0 451.69 -396.25 242.96 0 542.92 439.79 271.44 0.66 0c1.1,0 404.11,-240.4 404.11,-240.4l389.36 240.4 450.69 -274.89 0 -539.47 -396.74 -242.96 0 -451.69 -443.31 -270.47 -448.31 270.47zm0 671.57l0 0 0 325.67 265.92 162.36 -218.21 133.05 -264.41 -162.19 0 -326.32 216.7 -132.57zm448.31 -724.96l0 0 264.3 162.05c0,0 0,776.75 0,778.99 -1.75,1.03 -262.65,160.34 -264.3,161.4 -1.93,-1.06 -266.34,-160.37 -268.27,-161.4 0,-2.24 0,-778.99 0,-778.99l268.27 -162.05zm443.31 1051.11l0 0 0 -0.48 0 -325.67 217.42 132.57 0 326.32 -265.75 162.19 -217.11 -133.05 265.44 -161.88z"/>
  <polygon class="fil0" points="3473.79,15207.83 3473.79,16040.68 3597.31,16040.68 3597.31,15207.83 "/>
  <path class="fil0" d="M2970.42 15248.59l-305.33 792.09 115.76 0 79.49 -221.79 296.16 0 71.36 221.79 142.88 0 -281.81 -792.09 -118.51 0zm44.39 139.76l0 0 115.42 351.75 -241.55 0 126.13 -351.75z"/>
  <path class="fil0" d="M6644.29 15248.59l0 792.09 233.27 0c171.75,0 282.87,-90.19 282.87,-229.96 0,-116.09 -99.54,-185.24 -193.04,-189.75l0 -19.67c24.37,-6.72 144.64,-48.37 144.64,-190.21 0,-105.11 -80.85,-162.5 -210.98,-162.5l-256.76 0zm123.35 78.58l0 0 90.38 0c80.02,0 127.7,42.76 127.7,114.1 0,83.65 -65.65,146.42 -159.51,146.42l-58.57 0 0 -260.52zm0 339.45l0 0 107.47 0c101.27,0 161.75,54.91 161.75,146.48 0,90.64 -63.08,149 -160.7,149l-108.52 0 0 -295.48z"/>
  <polygon class="fil0" points="8498.38,15207.83 8498.38,16040.68 8621.95,16040.68 8621.95,15711.2 8853.14,16050.4 8973.58,16005.65 8760,15716.4 8923.62,15511.62 8813.24,15456.47 8621.95,15709.13 8621.95,15207.83 "/>
  <path class="fil0" d="M7995.2 15546.38l-17.63 19.53 0 -85.02 -122.31 0 0 559.79 123.7 0 0 -335.55c0,-94.87 53.92,-156.03 137.53,-156.03 77.41,0 122.89,51.71 122.89,145.53l0 346.05 123.52 0 0 -363.49c0,-139.46 -62.89,-210.15 -187.12,-210.15 -71.38,0 -135.5,28.11 -180.58,79.34z"/>
  <polygon class="fil0" points="6115.33,15480.89 6115.33,16040.68 6238.7,16040.68 6238.7,15480.89 "/>
  <polygon class="fil0" points="6115.33,15278.83 6115.33,15386.67 6238.7,15386.67 6238.7,15278.83 "/>
  <polygon class="fil0" points="5212.82,15278.83 5212.82,15386.84 5336.17,15386.84 5336.17,15278.83 "/>
  <path class="fil0" d="M5471.99 15207.83l0 832.85 123.4 0 0 -335.55c0,-94.87 54.23,-156.03 137.54,-156.03 77.6,0 123.04,51.71 123.04,145.53l0 346.05 123.55 0 0 -363.49c0,-139.46 -63.08,-210.15 -186.96,-210.15 -71.36,0 -135.65,28.11 -180.76,79.17l-17.3 19.7 0 -358.08 -122.51 0z"/>
  <path class="fil0" d="M4002.69 15248.59l0 792.09 123.56 0 0 -334.83 103.15 0c0,0 154.67,333.66 161.23,347.65 12.25,-2.48 119.56,-23.12 141.52,-27.11 -12.64,-24.19 -180.59,-343.76 -180.59,-343.76l8.32 -5.3c84.15,-52.5 124.94,-126.64 124.94,-226.69 0,-126.64 -88.3,-202.05 -236.41,-202.05l-245.72 0zm123.56 78.58l0 0 101.79 0c83.25,0 133.2,53.98 133.2,137.63 0,75.66 -47.14,162.58 -150.86,162.58l-84.13 0 0 -300.21z"/>
  <path class="fil0" d="M5212.82 15480.89l0 564.55c0,63.56 -9.7,118.48 -21.1,146.79 -10.2,22.81 -32.15,39.38 -56.52,46.86 0,7.92 0,26.63 0,38.89 140.49,-3.27 200.97,-74.38 200.97,-237.3l0 -559.79 -123.35 0z"/>
  <path class="fil0" d="M7504.29 15467.04c-77.41,0 -138.61,22.5 -197.52,71.01 7.61,11.37 28.33,43.54 36.13,55.46 44.03,-37.38 88.63,-54.81 142.7,-54.81 55.84,0 95.22,42.72 103.2,98.36l1.36 9.13 -131.66 41.16c-133.77,40.28 -196.12,104.29 -196.12,201.34 0,96.22 62.04,166.02 147.38,166.02 117.15,0 183.88,-110.62 183.88,-110.62l0 96.59 126.12 0 0 -368.14c0,-136.56 -72.41,-205.5 -215.47,-205.5zm36.47 465.36l0 0c-23.17,26.09 -50.84,40.18 -78.14,40.18 -42.67,0 -76.2,-42.45 -76.2,-96.71 0,-70.52 38.54,-119.13 114.92,-143.76 0,0.14 81.2,-27.87 81.2,-27.87l12.97 -4.31 0.88 13.51c8.29,126.81 -31.62,191.58 -55.63,218.96z"/>
  <path class="fil0" d="M4861.66 15467.04c-77.41,0 -138.58,22.5 -197.33,71.01 7.28,11.37 28.02,43.54 35.94,55.46 44.24,-37.38 88.51,-54.81 142.73,-54.81 55.85,0 95.4,42.72 103.36,98.36l1.36 9.13 -131.66 41.16c-133.93,40.28 -196.31,104.29 -196.31,201.34 0,96.22 61.87,166.02 147.41,166.02 117.15,0 183.85,-110.62 183.85,-110.62l0 96.59 126.16 0 0 -368.14c0,-136.56 -72.57,-205.5 -215.51,-205.5zm36.31 465.36l0 0c-22.98,26.09 -50.64,40.18 -78.1,40.18 -42.51,0 -76.05,-42.45 -76.05,-96.71 0,-70.52 38.7,-119.13 114.91,-143.76 -0.15,0.14 81.22,-27.87 81.22,-27.87l12.97 -4.31 0.84 13.51c8.32,126.81 -31.62,191.58 -55.79,218.96z"/>
 </g>
</svg>
