<?xml version="1.0" encoding="UTF-8"?>
<!DOCTYPE svg PUBLIC "-//W3C//DTD SVG 1.1//EN" "http://www.w3.org/Graphics/SVG/1.1/DTD/svg11.dtd">
<!-- Creator: CorelDRAW 2018 -->
<svg xmlns="http://www.w3.org/2000/svg" xml:space="preserve" width="210mm" height="297mm" version="1.1" style="shape-rendering:geometricPrecision; text-rendering:geometricPrecision; image-rendering:optimizeQuality; fill-rule:evenodd; clip-rule:evenodd"
viewBox="0 0 21000 29700"
 xmlns:xlink="http://www.w3.org/1999/xlink">
 <defs>
  <style type="text/css">
   <![CDATA[
    .fil0 {fill:#FEFEFE;fill-rule:nonzero}
   ]]>
  </style>
 </defs>
 <g id="Layer_x0020_1">
  <metadata id="CorelCorpID_0Corel-Layer"/>
  <path class="fil0" d="M16408.35 21145.36c-31.92,21.97 -68.96,37.39 -108.86,43.94 -28.71,11.64 -59.89,18.5 -92.43,19.46 -149.86,4.4 -262.2,-89.57 -280.29,-248.72 -22.69,-199.73 15.74,-338.32 173.53,-564.48l-12433.35 0c-963.99,0 -1413.85,-281.18 -1558.44,-706.94l62.51 0c-1.92,-5.32 -3.83,-10.64 -5.65,-16.02l13870.92 0c103.66,-43.72 187.31,-151.64 227.6,-290.93 -123.98,-20.99 -218.2,-124.23 -218.09,-248.69 0.12,-122.64 96.48,-228.22 220.26,-248.74 28.81,-11.68 60.11,-18.57 92.76,-19.53 149.86,-4.39 261.27,110.76 272.8,252.47 13.37,164.35 -24.76,369.66 -137.19,555.42l1575.04 0 504.47 0c473.9,0 792.95,361.96 790.98,706.93 -2.21,388.05 -299.63,689.6 -452.96,755.81 -56.72,24.5 -116.79,45.17 -172.79,59.13 -117.77,36.83 -228.88,49.81 -270.84,14.44 -18.35,-15.46 -36.15,-37.28 -45.92,-63.55l-706.14 0c-26.41,140.11 -146.62,245.98 -291.1,245.98 -144.48,0 -264.69,-105.87 -291.09,-245.98l-725.73 0zm-12005.61 -11614.52l365.29 608.83 0 148.81 -158.12 -125.56 -30.23 37.21c0,0 365.07,925.46 411.58,1176.59 0,0 28.84,261.32 6.87,407.06 -21.96,145.74 -265.73,642.46 -575.16,708.35 -37.39,7.96 -73.31,13.83 -107.77,17.92 47.3,348.48 94.77,700.54 136.64,1015.46 279.85,-151.2 581.99,-292.17 666.97,-331.34 15.34,-7.08 32.17,-9.81 48.98,-8.08l54.71 5.66c49.2,5.09 86.21,47.21 84.51,96.66 -3.82,110.69 -2.19,269.87 33.42,425.65 98.35,169.88 217,225.01 338.77,205.34 -221.62,-1545.59 -529.1,-3724.3 -529.1,-3724.3l-66.22 -158.94 97.12 -425.16c5.17,-22.64 25.31,-38.7 48.53,-38.7 20.08,0 38.2,12.07 45.94,30.59l391.2 936.59 0 139.08 -161.08 -173.47c-7.09,-7.63 -17.02,-11.96 -27.44,-11.96 -22.82,0 -40.37,20 -37.1,42.58 41.94,289.43 288.8,1994.14 469.33,3266.04 193.29,-160.61 366.1,-452.75 444.63,-705.77 58.3,-52.48 58.3,0 58.3,0 52.49,857.14 548.11,682.22 676.4,443.15 -40.83,-151.6 -139.95,-279.88 -139.95,-279.88l192.42 -454.82c0,0 180.76,186.59 151.6,571.44 -29.15,303.2 -180.76,629.73 -419.82,798.83 -69.97,23.32 -466.48,134.11 -583.09,-361.51 -48.62,85.06 -114.16,330.48 -309.9,488.07 66.5,473.08 114.33,822.55 122.79,907.16 0,0 39.74,483.45 26.5,649.01 -10.86,135.72 -88.47,400.48 -116.1,491.53 -5.73,18.88 -23.11,31.65 -42.85,31.65 -25.28,0 -45.58,-20.71 -44.8,-45.98 4.81,-156.95 16.6,-675.33 -28.05,-920.91 -13.75,-75.62 -70.8,-463.75 -147.7,-996.71 -35.16,9.27 -72.72,16.15 -112.96,20.08 -420.3,41 -525.21,-530.78 -544.44,-669.68 -2.62,-18.99 -14.35,-35.37 -31.5,-43.95 -18.81,-9.4 -41.03,-7.75 -58.5,3.95 -137.83,92.29 -326.33,190.95 -489.35,270.45 38.39,295.67 65.77,516.51 73.88,604.15 39.69,428.63 15.87,809.65 -39.69,1039.84 -222.26,595.32 -476.27,849.33 -801.72,1127.15 -325.45,277.82 -611.21,452.46 -1008.1,595.34 -396.88,142.88 -1150.97,119.07 -1500.24,-333.38 -349.26,-452.46 -571.51,-1127.18 -79.37,-2651.21l79.37 -63.51c0,0 -267.62,938.73 -150.82,1658.99 142.89,881.09 1040.29,906.74 1150.99,896.96 269.88,-23.81 1262.11,-95.24 2222.58,-1492.29 -46.04,-337.56 -108.28,-785.82 -176.52,-1274.13 -71.02,32.18 -115.95,51.44 -115.95,51.44l5.83 705.53c-93.29,594.75 -524.78,1032.06 -1329.45,1486.87 -340.21,192.29 -879.1,234.61 -1185.11,-27.78 -185.52,-159.08 -348.67,-389.44 -395.06,-771.05 -11.25,-202.43 -6.93,-516.67 34.99,-787.17 45,-290.46 128.27,-530.6 128.27,-530.6l104.96 -99.13c0,0 -215.75,647.23 -122.45,1096.21 93.29,448.97 466.47,676.37 606.41,711.36 139.95,34.98 379.01,34.98 571.43,-17.5 184.68,-50.36 895.75,-374.66 1380.54,-1112.09 40.57,-61.72 58.96,-135.63 52.85,-209.24 -12.32,-148.75 -37.29,-191.32 -133.1,-363.78 -564.99,14.86 -784.56,84.5 -898.59,-174.23 -39.32,-89.19 -52.82,-187.55 -44.91,-284.7 21.98,-269.7 111.36,-919.3 465.37,-905.51 440.08,17.16 628.93,608.36 668.33,755.22 5.36,20 22.25,34.77 42.85,36.89 0.23,0.03 0.45,0.05 0.67,0.07 33.64,3.43 67.46,-1.42 98.74,-13.55 -53.41,-381 -108.49,-772.67 -160.9,-1144.99 -116.92,-17.26 -203.91,-55.26 -260,-89.78 -103.81,-63.89 -355.36,-407.27 -395.29,-710.72 0,0 -71.87,612.89 -389.3,834.49 -317.42,221.6 -678.77,207.63 -974.24,-117.78 -295.46,-325.41 -247.55,-716.71 -247.55,-770.61 0,-41.52 43.82,-388.61 63.96,-545.91 6.61,-51.62 78.98,-521.7 78.98,-521.7 -2.51,-16.26 -23.64,-35.46 -97.02,63.42 0,0 -135.76,289.48 -171.69,457.17 -35.94,167.7 -95.82,441.2 -117.78,614.9 -21.97,173.68 -83.86,558.99 -153.73,714.71 -69.87,155.71 -359.35,399.27 -555,17.96 -195.65,-381.31 -203.1,-853.31 -211.08,-1068.92 -7.98,-215.61 27.22,-513.97 27.22,-513.97l55.19 -75.2c3.18,-4.23 9.91,-1.89 9.78,3.39 -2.05,87.53 -9.99,492.59 13.08,698.43 25.95,231.58 123.15,470.32 167.7,545.02 78.42,131.47 289.48,135.75 375.32,17.96 85.85,-117.78 199.64,-702.72 243.56,-884.4 43.92,-181.67 295.46,-1084.04 574.96,-1104.01 13.7,-0.69 37.76,1.1 41.93,3.99 4.17,2.9 15.97,13.98 15.97,37.94 0,23.96 -105.81,1094.02 -117.79,1251.73 -11.98,157.72 -7.99,259.53 63.89,461.17 71.87,201.64 261.06,276.79 325.41,299.46 146.64,51.68 302.6,38.89 453.73,-26.6 90.33,-39.14 187.11,-145.08 272.95,-256.88 85.85,-111.8 149.74,-275.51 161.72,-377.32 11.06,-94.08 -165.34,-1101.66 -198.54,-1325.22 -3.61,-24.34 -2.89,-49.22 2.54,-73.23 30.6,-135.18 70.24,-257.23 118.45,-366.79 5.82,-13.19 18.98,-21.54 33.39,-21.54 13.7,0 26.15,7.53 32.31,19.75 26.5,52.46 97.47,198.17 121.65,299.67 29.94,125.78 133.76,1225.8 163.7,1351.57 29.95,125.77 115.79,405.26 331.4,588.93 19.61,16.7 41.85,30.85 66.12,42.65 -111.25,-789.92 -197.66,-1403.22 -207.75,-1483.6l-114.5 -393.59c-8.15,-28.02 -7.8,-57.85 1.04,-85.66l133.25 -419.72c4.12,-13.02 22.2,-13.92 27.6,-1.38l405.06 940.04 0 143.78c0,6.2 -7.06,9.76 -12.04,6.07l-144.63 -106.9c-9.65,-7.13 -23.16,0.66 -21.52,12.56 19.59,141.55 102.24,739.72 197.08,1434.58 223.65,-8.17 472.04,-108.92 570.66,-250.54 0,0 35.94,-65.88 33.94,-123.77 0,0 -155.72,-327.41 -281.49,-664.8 -125.77,-337.39 -247.55,-866.44 -261.52,-1006.18l-39.93 -31.95 59.86 -405.57c2.78,-18.91 18.95,-32.98 38.07,-33.12 13.74,-0.11 26.5,7.06 33.57,18.82zm5425.8 -5.71l365.3 608.82 0 148.82 -158.12 -125.57 -30.23 37.21c0,0 365.07,925.46 411.56,1176.59 0,0 28.85,261.32 6.89,407.06 -21.96,145.74 -265.73,642.46 -575.17,708.35 -309.44,65.88 -519.06,-9.99 -622.87,-73.87 -103.81,-63.89 -355.35,-407.27 -395.28,-710.72 0,0 -71.87,612.89 -389.3,834.49 -317.42,221.6 -678.77,207.63 -974.24,-117.78 -295.46,-325.41 -247.55,-716.71 -247.55,-770.61 0,-41.52 43.82,-388.6 63.96,-545.91 6.6,-51.61 78.98,-521.7 78.98,-521.7 -2.5,-16.26 -23.64,-35.45 -97.02,63.43 0,0 -135.76,289.47 -171.69,457.16 -35.93,167.7 -95.83,441.21 -117.79,614.9 -21.96,173.69 -83.85,558.99 -153.72,714.71 -69.88,155.72 -359.35,399.27 -555,17.96 -195.64,-381.31 -203.1,-853.31 -211.08,-1068.92 -7.99,-215.61 27.21,-513.97 27.21,-513.97l55.2 -75.2c3.18,-4.23 9.9,-1.89 9.78,3.39 -2.05,87.53 -9.99,492.59 13.08,698.43 25.95,231.58 123.15,470.32 167.7,545.02 78.41,131.47 289.47,135.75 375.32,17.96 85.85,-117.78 199.64,-702.72 243.56,-884.4 43.92,-181.67 295.46,-1084.04 574.96,-1104.01 13.7,-0.69 37.76,1.1 41.93,3.99 4.16,2.91 15.96,13.98 15.96,37.94 0,23.96 -105.8,1094.02 -117.78,1251.73 -11.98,157.72 -7.99,259.54 63.88,461.17 71.88,201.64 261.06,276.79 325.41,299.46 146.65,51.68 302.61,38.89 453.75,-26.6 90.32,-39.14 187.09,-145.08 272.94,-256.88 85.85,-111.8 149.73,-275.51 161.72,-377.32 11.06,-94.08 -165.34,-1101.66 -198.54,-1325.22 -3.61,-24.34 -2.9,-49.22 2.54,-73.23 30.6,-135.18 70.24,-257.23 118.45,-366.79 5.81,-13.19 18.98,-21.54 33.39,-21.54 13.69,0 26.14,7.53 32.31,19.75 26.49,52.46 97.48,198.18 121.64,299.68 29.95,125.77 133.75,1225.79 163.7,1351.56 29.95,125.77 115.79,405.26 331.4,588.93 215.61,183.67 744.66,61.89 900.38,-161.71 0,0 35.93,-65.88 33.93,-123.77 0,0 -155.71,-327.41 -281.49,-664.8 -125.78,-337.39 -247.55,-866.43 -261.53,-1006.18l-39.92 -31.95 59.86 -405.57c2.79,-18.91 18.95,-32.98 38.07,-33.12 13.74,-0.1 26.5,7.06 33.56,18.83zm2044.23 126.19l391.2 936.58 0 139.08 -161.08 -173.46c-7.09,-7.64 -17.02,-11.97 -27.44,-11.97 -22.82,0 -40.37,20 -37.1,42.59 31.21,215.42 175.95,1214.91 322.37,2236.39 293.89,361.04 679.61,825.73 767.77,933.92 125.84,154.45 411.84,469.05 520.52,646.37 108.69,177.32 200.21,337.49 234.53,469.04 32.01,122.69 49.09,514.07 41.96,677.6 -0.77,17.81 -15.59,31.68 -33.43,31.68 -17.53,0 -32.08,-13.33 -33.33,-30.82 -8.08,-112.12 -112.48,-564.07 -409.92,-907.26 -161.79,-186.67 -858.01,-1023.89 -955.25,-1144 -9.39,-11.59 -24.33,-29.83 -43.74,-53.37 127.46,893.68 237.94,1680.19 251.24,1813.16 0,0 39.73,483.43 26.48,649 -10.85,135.72 -88.46,400.48 -116.09,491.54 -5.73,18.88 -23.11,31.65 -42.85,31.65 -25.28,0 -45.58,-20.72 -44.8,-45.99 4.8,-156.95 16.6,-675.33 -28.05,-920.91 -24.14,-132.77 -181.65,-1228.06 -345.99,-2381.09 -228.42,-276.09 -495.29,-599.83 -565.69,-693.69 -120.13,-160.16 -823.69,-1184.05 -852.29,-1229.81 -20.37,-32.59 -46.55,-88.39 -59.92,-117.81 -5.44,-11.94 -17.27,-19.46 -30.38,-19.46l-24.11 0 31.43 -553.19c1.64,-17.17 16.06,-30.26 33.3,-30.26l13.32 0c8.65,0 16.96,3.35 23.2,9.34l736.7 708.79c5.57,5.38 9.12,12.52 10.02,20.21l10.04 85.34 -268.06 -40.46c-19.04,-2.87 -36.56,10.88 -38.31,30.05l-1.32 14.57c-0.77,8.36 1.5,16.51 6.6,23.18l884.67 1155.14c-164.2,-1155.32 -311.57,-2199.46 -311.57,-2199.46l-66.22 -158.95 97.12 -425.16c5.17,-22.64 25.31,-38.69 48.54,-38.69 20.07,0 38.19,12.06 45.93,30.59zm-8153.33 4074.4l0 0c-425.66,-682.22 -588.92,-139.95 -594.75,-11.66l594.75 11.66zm4032.79 -459.28l592.84 649.55 5.16 154.66 -262.92 -154.66 5.16 123.73c0,0 170.12,402.1 242.29,556.77 82.48,237.12 41.24,484.57 30.94,603.15 -134.05,484.58 -634.1,840.28 -1098.07,1247.54 -31.74,24.15 -62.94,48.14 -93.77,71.94 7.49,264.52 96.45,441.66 486.05,342.72 392.72,-99.74 1490.73,-1073.85 1427.51,-1290.37 -63.22,-216.53 -310.02,-1343.56 -554.79,-1739.2l6.24 -673.24c130.91,93.51 349.08,504.93 448.81,829.09 99.74,324.14 348.17,1499.46 348.17,1499.46l16.96 82.87 20.44 -82.87 44.56 -271.43c62.34,-162.08 224.41,-386.49 324.15,-498.69 99.74,-112.21 437.69,-433.48 793,-670.37 0,0 -34.77,-75.76 -78.71,-204.17 -6.64,-19.4 -10.1,-39.78 -10.52,-60.28l-4.06 -199c-1.27,-62.53 16.7,-124.81 55.14,-174.15 0.73,-0.93 1.46,-1.87 2.2,-2.8 79.39,-100.13 203.92,-153.72 331.7,-154.56l3.61 -0.02c129.88,-0.7 256.93,36.78 366.5,106.5 82.21,52.32 181.09,123.25 258.55,203.17 52.25,53.91 65.2,135.09 34.25,203.48 -63.65,140.64 -149.6,285.19 -149.6,285.19 -93.51,12.47 -511.16,230.64 -511.16,230.64 0,0 74.8,180.79 -143.38,311.7 18.7,-124.68 -56.1,-249.36 -56.1,-249.36 -360.32,221.18 -575.87,369.78 -859.36,754.78 -8.43,11.44 -11.76,26.14 -8.98,40.08 4.71,23.54 25.62,40.51 49.62,40.56 1641.59,3.57 2177.6,-65.8 2335.79,-97.24 21.77,-4.32 38.1,19.58 26.21,38.32 -67.3,106.1 -214.77,338.23 -252.9,395.44 -523.63,37.4 -1620.76,598.42 -1770.37,804.14 49.87,162.07 336.61,417.66 585.96,473.76l0 467.53c-667,-6.24 -1016.09,-355.32 -1234.27,-592.21 -218.18,-236.88 -367.79,-916.36 -367.79,-916.36 0,81.04 -6.23,342.86 -193.24,598.44 -187.01,255.59 -548.56,673.25 -941.28,897.66 -392.73,224.41 -654.55,187.01 -785.45,43.63 -130.35,-142.75 -185.55,-415.59 -168.52,-676.09 -276.04,213.05 -540.65,407.73 -925.63,563.36 -829.98,144.34 -1422.84,128.87 -1505.32,134.03l61.87 -61.86c0,0 1319.73,-463.97 1690.9,-716.58 209.27,-130.53 517.65,-341.03 828.39,-567.86 72.23,-218.97 142.98,-389.26 142.98,-389.26l31.17 56.1c-2.46,29.49 -34.95,130.65 -73.01,258.8 427.8,-316.78 840.15,-651.52 983.06,-837.32 -247.45,-226.83 -572.23,-1232.08 -572.23,-1232.08l-56.71 -46.39 56.71 -515.53 41.25 5.16zm3329.97 522.19l0 0c-56.1,-68.57 -342.85,-187.01 -492.46,-99.74 53.7,93.08 80.67,138.05 126.92,264.09 0,0 215.94,-108.24 365.54,-164.35zm-1101.18 2777.32l0 0c38.13,-405.43 116.41,-493.74 307.08,-692.44 155.29,-161.84 395.39,-260.91 435.53,-276.97 40.14,-16.06 -34.12,-10.03 -34.12,-10.03l-1308.6 46.16c-14.06,397.39 435.53,1023.6 600.11,933.28zm7095.92 -6945.22l423.83 1007.13 0 157.97 -147.03 -173.43c-2.05,-2.41 -5.06,-3.8 -8.23,-3.8l-33.54 0c0,0 85.25,608.27 190.03,1361.32 250.64,297.87 534.68,633.84 640.75,758.48 33.59,39.46 91.68,107.87 164.56,193.71 -175.7,-1228.98 -359.68,-2508.27 -380.25,-2651.25 -1.27,-8.86 -4.54,-17.04 -9.61,-24.42l-14.75 -21.46c-8.61,-12.52 -11.98,-27.92 -9.39,-42.89l94.5 -546.32c1.5,-8.69 9.04,-15.04 17.87,-15.04l15.1 0c7.3,0 13.89,4.37 16.72,11.1l414.93 986.95c2.99,7.14 4.54,14.81 4.54,22.55 0,54.49 -68.17,79.11 -102.98,37.19l-56.89 -68.5 -32.62 0 367.3 2694.31c286.17,337.06 596.88,702.82 666.18,782.88 229.81,265.48 424.62,539.64 488.15,813.11 41.93,180.5 29.7,705.03 29.7,705.03 -5.23,26.26 -33.59,8.17 -43.45,-13.63 0,0 -2.14,-63.81 -22.94,-181.12 -15.18,-85.62 -32.25,-197.08 -68.54,-279.03 -85.94,-194.04 -110.89,-260.57 -324.33,-498.96 -90.83,-101.45 -364.52,-415.34 -643.96,-735.53l86.96 637.92c0,0 32.63,274.05 35.89,381.72 2.2,72.36 10.16,238.25 -1.66,418.47 -15.34,234.03 -61.15,479.86 -105.2,575.09 -1.59,3.44 -3.47,6.32 -5.9,9.23 -5.06,6.05 -14.82,16.96 -26.27,25.8l-24.45 13.31c-11.22,6.11 -24.82,-2.38 -24.26,-15.14l1.63 -37.16c0.02,-1.03 0.02,-1.97 0.04,-2.99 -0.28,-31.17 -5.21,-552.09 -10.9,-631.83 -3.05,-42.84 -112.05,-813.68 -243.94,-1738.52 -199.9,-228.49 -361.71,-412.41 -402.27,-454.92 -39.32,-41.22 -204.04,-239.81 -403.43,-482.94 144.91,1045.36 293.31,2127.14 297.23,2201.59 4.29,81.43 11.81,235.94 9.09,387.48 -2.18,120.93 -12.95,333.02 -12.95,333.02 3.86,215.75 -181.08,739.75 -392.99,974.77 -211.91,235.03 -439.24,188.8 -524,188.8 -84.76,0 -439.23,-61.65 -601.06,-358.32 -161.82,-296.68 -271.88,-680.62 -296.67,-732.05 -18.53,-38.45 -67.49,-129.21 -148.97,-174.2 59.63,437.78 99.96,745.64 105.34,815.56 23.94,311.18 40.11,839.68 -94.93,1200.45 -6.44,17.2 -25.08,26.54 -42.9,22.08l-6.33 -1.58c-16.41,-4.1 -27.84,-18.78 -27.56,-35.7 2.19,-140.01 8.22,-756.98 -49.74,-1054.01 -15.03,-77.09 -66.76,-438.09 -138.26,-949.09 -102.73,31.38 -208.75,93.27 -286.32,184.2 -117.48,137.7 -316.06,485.68 -462.35,893.86 -80.66,225.07 -182.78,620.01 -331.6,921.42 -57.79,117.05 -224.26,457.04 -423.37,457.62 -154.1,0.46 -309.28,-165.1 -446.73,-392.25 -52.03,-85.97 -141.48,-355.05 -195.28,-656.53 -51.35,37.48 -106.83,73.35 -167.3,106.64 -237.69,130.86 -583.92,224.76 -1152.8,312.93 -16,2.49 -30.75,-9.89 -30.75,-26.09l0 -10.13c0,-10.5 6.01,-19.9 15.64,-24.1 106.85,-46.61 741.43,-333.76 1288.25,-806.37 -13.71,-388.99 34.56,-724.9 45.33,-750.03l68.71 -52.31c3.72,14.86 -59.48,363.08 -31.81,729.16 164.07,-150.25 317.05,-317.56 441.24,-500.44 194.69,-334.9 211.23,-449.16 196.97,-619.3 -30.27,-360.92 -60.85,-443.37 -112.73,-858.11l-596.16 -4088.87 -58.32 -51.85 93.14 -558.82c2.35,-14.06 14.51,-24.37 28.78,-24.37l7.56 0c11.83,0 22.5,7.15 26.99,18.1l407.29 992.78 0 149.03 -135.84 -153.55c-8.14,-9.21 -20.65,-13.27 -32.64,-10.6 -13.16,2.92 -21.85,15.46 -19.95,28.8l535.73 3785.12c0,0 26.52,447.62 -9.97,917.32 -23.55,303.17 -106.28,657.85 -272.53,921.44 -76.27,120.93 -138.08,193.4 -199.47,261.38 -63.95,70.81 -133.65,144.19 -214.12,214.85 76.95,231.45 185.72,414.51 247.02,468.37 83.58,73.43 197.9,155.52 304.87,112.78 108.07,-43.19 207.38,-210.66 242.23,-282.31 69.35,-142.56 519.18,-1297.01 593.35,-1429.43 214.72,-383.32 362.05,-560.12 527.85,-643.43 14.24,-7.15 28.16,-13.83 41.76,-20.06 -250.69,-1803.99 -642.08,-4659.76 -688.45,-4719.4l-39.54 -36.67 97.14 -520.26c3.64,-19.55 20.7,-33.71 40.58,-33.71 16.78,0 31.9,10.15 38.24,25.69l399.44 979.56 -7.52 169.24 -109.24 -162.1c-4.6,-6.83 -12.25,-10.94 -20.48,-11.03l-33.24 -0.32c-15.3,-0.15 -27.16,13.2 -25,28.34 40.71,285.6 376.74,2644.41 592.98,4207.19 69.86,-7.56 120.82,1.53 152.56,16.47 65.5,30.82 173.39,119.44 308.24,458.5 134.85,339.05 161.82,450.78 262,604.89 47.6,73.23 176.74,165 333.72,195.49 173.4,33.69 377.07,0.71 459.98,-33.66 157.97,-65.5 265.85,-269.71 327.5,-396.84 0,0 3.85,-92.47 3.85,-161.83 0,-69.35 -3.85,-192.64 -19.27,-285.11 -8.82,-52.95 -233.66,-1689.99 -424.25,-3079.71 -241.07,-296.02 -462.8,-569.8 -528.56,-651.41 -241.75,-300.05 -773.23,-1073.46 -951.54,-1367.24l-30.69 -33.59 33.12 -478.91c0.92,-13.3 11.98,-23.62 25.32,-23.62l15.21 0c6.52,0 12.79,2.5 17.51,7.01l740.89 706.79c5.5,5.25 8.62,12.51 8.62,20.11l0 22.27c0,15.35 -12.45,27.8 -27.8,27.8l-264.32 0 0 30.98c0,0 637.35,836.53 823.25,1062.26 15.28,18.56 33.92,41.05 55.24,66.68 -103.59,-755.77 -181.67,-1325.91 -181.67,-1325.91l-46.23 -26.97 104.03 -591.02c13.89,-7.13 26.68,-6.79 38.52,0zm1536.62 6824.03l-87.3 211.69c-53.1,8.38 -99.64,20.86 -139.61,37.44l-68.01 33.85 -57.46 25.77c-15.5,6.73 -77.22,60.57 -185.11,161.57l-38.19 27.87 -31.27 26.78c-4.35,-27.59 7.65,-68.9 36.06,-123.93 24.08,-42.36 62.47,-86.52 115.15,-132.54l24.18 -19.24c-86.51,1.65 -135.53,0.8 -147.09,-2.51 -65.37,-9.4 -101.42,-35.43 -108.14,-78.06 -15.03,-95.31 4.83,-196.97 59.57,-305 65.95,-126.92 162.81,-200.47 290.56,-220.61 28.46,-4.49 59.69,3.43 93.66,23.79 35.65,26.09 56.26,56.67 61.8,91.79l-73.63 163.27 -52.31 -31.6c-23.02,-10.93 -46.09,-18.44 -69.21,-22.5 -23.12,-4.07 -41.35,-5.89 -54.7,-5.52 -17.71,2.8 -31.61,7.13 -41.72,13.01 -10.4,4.21 -24.52,14.59 -42.42,31.1 -31.99,22.2 -45.74,47.51 -41.26,75.92 5.01,31.78 57.83,49.16 158.46,52.13l174.01 -6.87 106.8 -12.98 117.18 -14.62zm856.09 -6805.93l407.3 992.77 0 149.04 -135.84 -153.55c-8.15,-9.21 -20.65,-13.27 -32.65,-10.61 -13.15,2.93 -21.83,15.47 -19.95,28.81l535.73 3785.12c0,0 26.53,447.63 -9.96,917.32 -23.55,303.17 -106.28,657.85 -272.53,921.44 -76.28,120.93 -138.09,193.4 -199.47,261.38 -129.84,143.78 -283.37,298.14 -502.66,418.88 -237.69,130.87 -583.93,224.76 -1152.8,312.93 -16,2.49 -30.75,-9.89 -30.75,-26.09l0 -10.13c0,-10.5 6.01,-19.9 15.64,-24.1 144.92,-63.23 1260.96,-568.98 1811.72,-1379.99 194.68,-334.9 211.22,-449.16 196.96,-619.3 -30.27,-360.93 -60.84,-443.38 -112.73,-858.12l-596.15 -4088.86 -58.32 -51.85 93.13 -558.82c2.35,-14.06 14.52,-24.37 28.78,-24.37l7.56 0c11.84,0 22.5,7.15 26.99,18.1zm-7776.51 7264.59c119.65,-130.76 165.48,-433.19 348.34,-428.4 111.9,102.7 150.67,353.7 46.11,490.15 -103.97,18.11 -195.54,-66.03 -276.77,-141.57 -116.84,299.69 -359.15,438.21 -580.36,557.59 -193.55,113.7 -405.82,138.29 -609.42,204.19 353.77,-235.21 750.24,-363.54 1072.1,-681.96zm196.82 -214.97l0 0c50.72,31.31 103.65,55.25 157.5,76.07 -37.75,-74.96 -91.14,-137.46 -157.5,-76.07zm-9298.41 -2538.37c107.88,-13.19 191.2,92.45 228.98,181.41 -0.42,89.24 -31.85,178.72 -76.17,255.72 -56.65,-74.74 -159.1,-228.03 -255.03,-114.39 -167.01,314.77 -125.59,693.36 -254.49,1021.89 -117.88,-206.37 -136.81,-480.73 -303.14,-671.43 -23.07,3.44 -46.1,6.99 -68.7,10.41 -77.23,-56.26 -163.05,-98.47 -242.53,-150.96 -8.51,-109.19 -37.87,-341.55 141.09,-295.61 292.6,101.9 353.67,448.12 492.92,684.44 46.48,-223.36 68.91,-452.68 138.68,-670.54 38.88,-99 87.94,-215.78 198.39,-250.94zm8056.02 -1903.21c2.18,-164.67 46.89,-375.11 220.61,-419.82 137.27,103.22 121.33,308.31 108.63,464.82 116.41,42.04 160.18,164.37 119.94,284.41 -61.32,-17.59 -114.09,-56.44 -169.82,-87.1 -160.47,370.14 -502.3,578.25 -800.3,805.96 -71.22,47.29 -127.67,126.93 -215.93,137.97 292.38,-351.31 697.71,-588.88 963.72,-970.24 -86.86,-53.4 -216,-89.76 -226.85,-216zm61.57 -117.35l0 0c50.64,77.68 140.39,96.97 216.61,133.14 -12.26,-74.76 -14.26,-168.66 -78.72,-216.28 -60.77,-23.36 -108.81,34.94 -137.89,83.14zm-9082.15 852.52c2.71,-204.95 58.36,-466.86 274.57,-522.5 170.84,128.47 151,383.72 135.2,578.5 144.89,52.34 199.36,204.58 149.27,353.98 -76.31,-21.88 -141.99,-70.24 -211.35,-108.4 -199.72,460.67 -625.16,719.69 -996.05,1003.09 -88.64,58.86 -158.9,157.98 -268.76,171.72 363.9,-437.24 868.39,-732.91 1199.46,-1207.55 -108.1,-66.48 -268.83,-111.72 -282.34,-268.84zm76.64 -146.06l0 0c63.02,96.68 174.72,120.7 269.58,165.71 -15.25,-93.04 -17.74,-209.91 -97.98,-269.18 -75.63,-29.08 -135.42,43.49 -171.6,103.47zm8130.57 657.41c47.35,173.22 156.1,399.51 17.92,568.27 -35.04,30.21 -80.5,40.53 -125.11,44.9 -73.16,-18.3 -111.75,-90.09 -126.71,-159 9.01,157.49 -213.85,322.06 -309.28,145.99 -7.09,-16.52 -13.85,-33.32 -20.13,-49.85 -18.16,-108.97 26.94,-219.73 -14.46,-325.19 -11.88,-28.51 11.79,-53.33 21.71,-78.41 19.64,-27.08 18.54,-67.12 41.39,-89.91 90.95,43.23 10.3,298.96 18.67,368.49 30.77,111.48 226.84,79.18 228.88,-32.11 30.23,-145.51 -121.02,-291.73 20.15,-378.79 73.27,81.45 59.33,193.41 69.83,294 6.62,91.74 122.55,180.89 200.67,107.19 -49.91,-259.28 -156.71,-259.15 -23.53,-415.58zm3352.79 -2439.75c47.35,173.22 156.09,399.49 17.92,568.26 -35.04,30.21 -80.5,40.54 -125.11,44.9 -73.17,-18.31 -111.75,-90.08 -126.71,-159.01 9.01,157.51 -213.86,322.08 -309.28,146 -7.09,-16.52 -13.85,-33.32 -20.13,-49.86 -18.16,-108.96 26.93,-219.71 -14.45,-325.17 -11.89,-28.52 11.77,-53.33 21.69,-78.42 19.65,-27.08 18.55,-67.13 41.4,-89.9 90.95,43.22 10.29,298.95 18.66,368.49 30.77,111.48 226.84,79.18 228.88,-32.12 30.24,-145.5 -121.01,-291.73 20.16,-378.79 73.27,81.44 59.33,193.41 69.83,294 6.62,91.74 122.54,180.89 200.67,107.19 -49.92,-259.28 -156.71,-259.16 -23.53,-415.57zm-3643.68 -1072.27c40.51,156.11 133.55,360.04 15.33,512.14 -29.98,27.22 -68.88,36.53 -107.04,40.47 -62.6,-16.51 -95.61,-81.19 -108.41,-143.31 7.71,141.95 -182.97,290.27 -264.61,131.58 -6.08,-14.89 -11.85,-30.02 -17.23,-44.93 -15.54,-98.2 23.05,-198.03 -12.37,-293.06 -10.16,-25.7 10.09,-48.07 18.57,-70.67 16.81,-24.41 15.86,-60.5 35.42,-81.03 77.81,38.96 8.81,269.43 15.97,332.09 26.32,100.48 194.07,71.37 195.82,-28.94 25.87,-131.13 -103.54,-262.92 17.25,-341.38 62.69,73.41 50.76,174.31 59.75,264.97 5.65,82.68 104.84,163.02 171.68,96.6 -42.71,-233.67 -134.08,-233.56 -20.13,-374.53zm-2713.27 -481.15c87.66,-27.48 129.84,59.13 184.81,106.87 124.02,123.11 205.13,353.92 50.07,486 -71.68,6.6 -133.98,-26.41 -192.28,-63.47 -149.44,208.09 -363.7,372.91 -606.29,457.26 -152.87,47.19 -293.45,142.04 -452.12,162.09 269.87,-160.59 555.69,-294.79 810.58,-479.32 71.72,-42.1 144.42,-96.67 185.5,-169.15 -39.53,-14.46 -84.75,-23.88 -115.61,-53.84 -32.93,-101.96 24.8,-204.71 99.61,-271.19 -25.57,-59.37 17.16,-119.62 35.73,-175.25zm-72.11 277.81l0 0c11.56,63.58 88.9,54.85 134.8,79.43 6.64,-43.28 20.17,-87.32 9.21,-131.02 -53.63,-9.33 -107.83,11.82 -144.01,51.59zm206.7 -5.47l0 0c-6.61,37.63 -12.83,75.33 -19.49,112.88 39.45,22.64 80.1,65.13 129.43,44.31 -23.73,-60.65 -63.22,-112.51 -109.94,-157.19zm-6160.7 -134.13c7.52,-84.11 29.14,-224.71 141.85,-197.61 225.2,61.31 528.66,253.01 417.94,542.72 -109.78,97.35 -294.14,-49.33 -367.75,97.83 -76.97,116.52 -195.68,192.05 -277.33,304.63 32.85,33.24 69.25,68.44 116.98,73.73 310.65,16.41 617.51,-124.95 817.33,-372.8 -118.99,380.32 -547.01,586.19 -909.58,543.12 -117.2,-3.73 -121.08,-149.55 -80.41,-233.91 45.97,-172.35 203.75,-260.87 305.68,-391.08 -192.5,49.81 -189.58,-182.34 -122.54,-304.97 -14.13,-20.64 -28.05,-41.29 -42.17,-61.66zm138.17 34.58l0 0c-21.24,41.73 -70.42,95.36 -31.3,141.89 50.24,9.39 101.02,9.58 151.67,11.28 -4.21,-77.07 -46.43,-139.21 -120.37,-153.17zm164.42 151.55l0 0c60.31,10.94 121.46,15.97 182.64,15.04 -42.07,-53.71 -96.16,-93.98 -154.55,-125.99 -9.61,36.73 -18.97,73.73 -28.09,110.95zm13620.88 2401.2c-169.07,175.4 -408.22,-102.34 142.46,-888.01 13.9,-19.83 -11.03,-42.87 -29.82,-27.59 -698.64,568.24 -679.66,1330.85 -408.43,1402.64 144.06,38.13 298.16,-215.75 338.73,-463.94 3.92,-23.96 -26.09,-40.58 -42.94,-23.1zm308.51 2278.2c-169.07,175.4 -408.22,-102.33 142.46,-888 13.9,-19.83 -11.03,-42.88 -29.82,-27.59 -698.64,568.24 -679.67,1330.83 -408.43,1402.63 144.06,38.12 298.16,-215.75 338.73,-463.93 3.91,-23.97 -26.09,-40.59 -42.94,-23.11zm-1606.3 -1648.78c-152.59,143.19 -409.2,-3.42 128.58,-724.88 12.24,-16.42 -10.9,-36.19 -26.91,-22.53 -550.31,469.97 -613.84,1088.11 -368.63,1144.99 177.46,41.17 243.88,-168.5 305.72,-378.71 5.61,-19.07 -23.54,-33.14 -38.76,-18.87zm-9125.27 4466.3c-152.6,143.18 -409.21,-3.42 128.57,-724.88 12.24,-16.43 -10.9,-36.2 -26.91,-22.53 -550.31,469.97 -613.84,1088.11 -368.63,1144.99 177.46,41.17 243.89,-168.5 305.71,-378.71 5.61,-19.08 -23.53,-33.14 -38.74,-18.87zm4801.23 -30.77c-152.59,143.17 -409.19,-3.43 128.58,-724.89 12.24,-16.42 -10.9,-36.2 -26.92,-22.53 -550.3,469.97 -613.82,1088.11 -368.61,1144.99 177.44,41.18 243.87,-168.49 305.7,-378.71 5.61,-19.07 -23.53,-33.14 -38.75,-18.86zm2846.88 -2846.88c-152.58,143.18 -409.2,-3.43 128.58,-724.89 12.24,-16.41 -10.9,-36.19 -26.91,-22.52 -550.31,469.96 -613.84,1088.09 -368.63,1144.98 177.45,41.17 243.89,-168.49 305.72,-378.71 5.61,-19.07 -23.55,-33.13 -38.76,-18.86zm3503.62 2662.99c-169.07,175.41 -408.22,-102.33 142.46,-888 13.9,-19.83 -11.03,-42.87 -29.83,-27.59 -698.63,568.25 -679.66,1330.85 -408.42,1402.64 144.06,38.13 298.16,-215.75 338.73,-463.94 3.91,-23.96 -26.09,-40.59 -42.94,-23.11zm-10187.25 -938.7c-169.06,175.4 -408.22,-102.33 142.46,-887.99 13.9,-19.84 -11.03,-42.88 -29.81,-27.59 -698.65,568.23 -679.67,1330.83 -408.44,1402.62 144.06,38.13 298.17,-215.75 338.73,-463.94 3.92,-23.96 -26.09,-40.59 -42.94,-23.1zm1769.7 -984.86c-169.08,175.39 -408.22,-102.34 142.45,-887.99 13.9,-19.83 -11.03,-42.88 -29.81,-27.59 -698.64,568.22 -679.67,1330.83 -408.44,1402.62 144.06,38.13 298.16,-215.75 338.73,-463.93 3.92,-23.97 -26.08,-40.59 -42.93,-23.11zm9294.7 -2569.89c-169.07,175.4 -408.22,-102.33 142.46,-888 13.9,-19.84 -11.03,-42.88 -29.82,-27.59 -698.64,568.24 -679.67,1330.84 -408.43,1402.63 144.06,38.13 298.16,-215.75 338.73,-463.94 3.92,-23.96 -26.09,-40.59 -42.94,-23.1zm-13824.84 -2465.22c226.8,135.21 276.13,573.23 188.72,1072.19 -1.59,9.09 10.62,13.84 15.22,5.84 267.9,-465.37 266.21,-1106.43 -198.6,-1505.91 -12.43,-10.69 -31.84,-1.49 -31.84,14.91l0 364.73c0,19.57 9.7,38.22 26.5,48.24zm5386.02 -76.95c226.79,135.22 276.13,573.23 188.72,1072.2 -1.59,9.09 10.61,13.84 15.21,5.84 267.9,-465.38 266.22,-1106.43 -198.59,-1505.91 -12.44,-10.7 -31.85,-1.49 -31.85,14.91l0 364.73c0,19.57 9.71,38.21 26.51,48.23zm8757.03 3734.71c226.78,135.21 276.13,573.23 188.72,1072.18 -1.59,9.1 10.61,13.85 15.21,5.85 267.9,-465.37 266.22,-1106.42 -198.59,-1505.91 -12.45,-10.69 -31.86,-1.49 -31.86,14.91l0 364.74c0,19.56 9.71,38.21 26.52,48.23zm2354.2 -1961.83c226.79,135.21 276.12,573.22 188.72,1072.19 -1.6,9.09 10.61,13.84 15.22,5.84 267.9,-465.37 266.21,-1106.43 -198.61,-1505.91 -12.43,-10.69 -31.84,-1.49 -31.84,14.91l0 364.73c0,19.58 9.7,38.21 26.51,48.24zm-18227.97 1543.3c2.56,21.58 25.27,34.77 45.9,27.94 120.35,-39.79 165.09,-42.4 307.93,-2.11 147.6,41.64 -203.37,186.14 -413.06,273.5 -10.87,4.53 -8.74,20.41 2.9,22.22l154.3 23.99c9.96,1.55 19.95,1.24 29.75,-1.15 71.6,-17.41 377.41,-109.79 571.63,-452.7 18.59,-32.83 10.49,-74.49 -19.19,-97.8 -125.21,-98.33 -309.73,-130.25 -394.74,-130.25 -96.59,0 -123.92,-3.8 -189.15,64.39 -76.99,80.48 -106.93,182.05 -96.27,271.97zm9910.25 -3523.99c2.55,21.58 25.27,34.77 45.89,27.94 120.35,-39.79 165.09,-42.4 307.93,-2.11 147.61,41.64 -203.36,186.14 -413.05,273.49 -10.88,4.54 -8.74,20.42 2.9,22.23l154.29 23.99c9.97,1.55 19.95,1.24 29.75,-1.15 71.61,-17.41 377.42,-109.79 571.64,-452.7 18.59,-32.83 10.48,-74.5 -19.18,-97.8 -125.23,-98.33 -309.74,-130.25 -394.76,-130.25 -96.58,0 -123.91,-3.8 -189.14,64.39 -76.99,80.48 -106.92,182.05 -96.27,271.97zm1843.13 7.9c2.56,21.58 25.26,34.78 45.9,27.96 120.35,-39.8 165.09,-42.41 307.93,-2.11 147.6,41.62 -203.37,186.13 -413.07,273.49 -10.86,4.53 -8.74,20.4 2.9,22.22l154.3 24c9.97,1.54 19.96,1.23 29.76,-1.16 71.59,-17.41 377.41,-109.8 571.63,-452.7 18.59,-32.83 10.49,-74.49 -19.19,-97.79 -125.22,-98.33 -309.74,-130.26 -394.75,-130.26 -96.58,0 -123.92,-3.79 -189.14,64.39 -76.99,80.48 -106.93,182.05 -96.27,271.96zm1597.9 0c2.56,21.58 25.27,34.78 45.9,27.96 120.35,-39.8 165.09,-42.41 307.93,-2.11 147.61,41.62 -203.36,186.13 -413.05,273.49 -10.88,4.53 -8.75,20.4 2.9,22.22l154.29 24c9.97,1.54 19.95,1.23 29.75,-1.16 71.61,-17.41 377.42,-109.8 571.64,-452.7 18.59,-32.83 10.48,-74.49 -19.19,-97.79 -125.22,-98.33 -309.73,-130.26 -394.75,-130.26 -96.59,0 -123.91,-3.79 -189.15,64.39 -76.98,80.48 -106.92,182.05 -96.27,271.96zm4350.74 -15.82c2.56,21.58 25.27,34.78 45.9,27.96 120.35,-39.8 165.09,-42.4 307.93,-2.12 147.61,41.63 -203.37,186.14 -413.05,273.5 -10.88,4.52 -8.75,20.4 2.89,22.21l154.29 24c9.98,1.55 19.96,1.23 29.76,-1.14 71.6,-17.42 377.41,-109.81 571.64,-452.71 18.59,-32.82 10.48,-74.5 -19.2,-97.8 -125.21,-98.32 -309.72,-130.25 -394.74,-130.25 -96.59,0 -123.92,-3.8 -189.15,64.39 -76.99,80.48 -106.93,182.05 -96.27,271.96zm51.36 11086.82l0 0c-35.11,23.64 -60.6,46.83 -78.69,69.19l-740.08 0c-32.96,-131.01 -148.92,-227.84 -287.1,-227.84 -138.17,0 -254.13,96.83 -287.09,227.84l-629.08 0c7.17,-22.62 11.06,-46.46 11.07,-70.99 0.11,-124.46 -94.1,-227.69 -218.07,-248.69 40.82,-141.17 126.19,-250.23 231.77,-292.81 13.79,-2.26 27.8,-3.43 42.03,-3.43l1436.81 0c110.75,3.14 295.43,-7.32 452.23,100.71 156.81,108.02 236.95,331.03 66.2,446.02z"/>
 </g>
</svg>
