<?xml version="1.0" encoding="UTF-8"?>
<!DOCTYPE svg PUBLIC "-//W3C//DTD SVG 1.1//EN" "http://www.w3.org/Graphics/SVG/1.1/DTD/svg11.dtd">
<!-- Creator: CorelDRAW 2018 -->
<svg xmlns="http://www.w3.org/2000/svg" xml:space="preserve" width="210mm" height="297mm" version="1.1" style="shape-rendering:geometricPrecision; text-rendering:geometricPrecision; image-rendering:optimizeQuality; fill-rule:evenodd; clip-rule:evenodd"
viewBox="0 0 21000 29700"
 xmlns:xlink="http://www.w3.org/1999/xlink">
 <defs>
  <style type="text/css">
   <![CDATA[
    .fil0 {fill:#FEFEFE;fill-rule:nonzero}
   ]]>
  </style>
 </defs>
 <g id="Layer_x0020_1">
  <metadata id="CorelCorpID_0Corel-Layer"/>
  <g id="_610511584">
   <path class="fil0" d="M16957.94 10844.42l-2866.37 0c-110.01,0 -199.08,-89.19 -199.08,-199.07 0,-110 89.07,-199.2 199.08,-199.2l2667.3 0 0 -2451.42 -12517.65 0 0 2451.42 2667.31 0c109.97,0 199.11,89.2 199.11,199.2 0,109.88 -89.14,199.07 -199.11,199.07l-2866.42 0c-109.98,0 -199.12,-89.19 -199.12,-199.07l0 -2849.69c0,-110.01 89.14,-199.2 199.12,-199.2l12915.83 0c110,0 199.07,89.19 199.07,199.2l0 2849.69c0,109.88 -89.07,199.07 -199.07,199.07z"/>
   <path class="fil0" d="M12794.22 18066.99l-5430.14 0c-360.97,0 -654.67,-277.25 -654.67,-618.03l0 -9653.3c0,-110.01 89.16,-199.2 199.12,-199.2 109.97,0 199.11,89.19 199.11,199.2l0 9653.3c0,121.19 115.05,219.8 256.44,219.8l5430.14 0c109.98,0 199.11,89.13 199.11,199.11 0,109.99 -89.13,199.12 -199.11,199.12z"/>
   <path class="fil0" d="M14091.57 16494.73c-110.01,0 -199.08,-89.13 -199.08,-199.12l0 -8499.95c0,-110.01 89.07,-199.2 199.08,-199.2 109.88,0 199.2,89.19 199.2,199.2l0 8499.95c0,109.99 -89.32,199.12 -199.2,199.12z"/>
   <path class="fil0" d="M9549.52 18038.25c-109.96,0 -199.11,-89.11 -199.11,-199.1l0 -10043.49c0,-110.01 89.15,-199.2 199.11,-199.2 109.97,0 199.13,89.19 199.13,199.2l0 10043.49c0,109.99 -89.16,199.1 -199.13,199.1z"/>
   <path class="fil0" d="M8224.42 18038.25c-109.97,0 -199.11,-89.11 -199.11,-199.1l0 -10043.49c0,-110.01 89.14,-199.2 199.11,-199.2 109.98,0 199.12,89.19 199.12,199.2l0 10043.49c0,109.99 -89.14,199.1 -199.12,199.1z"/>
   <path class="fil0" d="M11250.3 14313.69c-109.99,0 -199.12,-89.14 -199.12,-199.11l0 -2191.54c0,-109.97 89.13,-199.11 199.12,-199.11 109.99,0 199.11,89.14 199.11,199.11l0 2191.54c0,109.97 -89.12,199.11 -199.11,199.11z"/>
   <path class="fil0" d="M12447.19 14850.4c-109.99,0 -199.13,-89.13 -199.13,-199.1l0 -2728.26c0,-109.97 89.14,-199.11 199.13,-199.11 109.89,0 199.11,89.14 199.11,199.11l0 2728.26c0,109.97 -89.22,199.1 -199.11,199.1z"/>
   <path class="fil0" d="M12775.54 9573.47l-1853.68 0c-109.99,0 -199.12,-89.07 -199.12,-199.07l0 -1578.74c0,-110.01 89.13,-199.2 199.12,-199.2 109.98,0 199.11,89.19 199.11,199.2l0 1379.54 1455.45 0 0 -1379.54c0,-110.01 89.23,-199.2 199.12,-199.2 109.98,0 199.11,89.19 199.11,199.2l0 1578.74c0,110 -89.13,199.07 -199.11,199.07z"/>
   <path class="fil0" d="M13178.89 21705.32l3310.07 0 0 -1380.36 -3310.07 0 0 1380.36zm3509.14 398.23l-3708.26 0c-109.98,0 -199.11,-89.13 -199.11,-199.11l0 -1778.59c0,-109.99 89.13,-199.12 199.11,-199.12l3708.26 0c110.01,0 199.2,89.13 199.2,199.12l0 1778.59c0,109.98 -89.19,199.11 -199.2,199.11z"/>
   <path class="fil0" d="M12979.77 20324.96c-109.98,0 -199.11,-89.22 -199.11,-199.11l0 -1676c0,-212.67 -86.29,-420.79 -236.57,-571.07l-1504.76 -1504.76c-39.05,-39.07 -78.79,-77.65 -120.88,-118.42 -324.1,-314.42 -691.45,-670.64 -666.28,-1225.24 21.51,-473.77 318.38,-878.07 774.84,-1055.11 455.88,-176.83 947.51,-78.18 1283.15,257.43l3240.84 3240.84c77.81,77.76 77.81,203.86 0,281.61 -77.7,77.76 -203.86,77.76 -281.55,0l-3240.88 -3240.85c-265.88,-265.84 -617.26,-260.95 -857.53,-167.75 -240.75,93.37 -504.05,326.79 -521.02,701.94 -17.07,375.38 256.28,640.59 545.67,921.25 41.34,40.01 84.01,81.45 125.25,122.7l1504.76 1504.75c224.43,224.43 353.19,535.24 353.19,852.68l0 1676c0,109.89 -89.22,199.11 -199.12,199.11z"/>
   <path class="fil0" d="M16688.03 20324.96c-109.88,0 -199.07,-89.11 -199.07,-199.11l0 -4101.42c0,-484.81 -188.73,-940.5 -531.42,-1283.09l-1021.08 -1021.01 -985.66 -985.62c-77.76,-77.77 -77.76,-203.83 0,-281.6 77.69,-77.75 203.85,-77.75 281.67,0l985.53 985.61 1021.08 1020.98c206.57,206.49 367.9,448.07 479.71,717.92 111.82,269.76 168.44,554.68 168.44,846.81l0 4101.42c0,110 -89.19,199.11 -199.2,199.11z"/>
  </g>
 </g>
</svg>
