<?xml version="1.0" encoding="UTF-8"?>
<!DOCTYPE svg PUBLIC "-//W3C//DTD SVG 1.1//EN" "http://www.w3.org/Graphics/SVG/1.1/DTD/svg11.dtd">
<!-- Creator: CorelDRAW 2018 -->
<svg xmlns="http://www.w3.org/2000/svg" xml:space="preserve" width="210mm" height="297mm" version="1.1" style="shape-rendering:geometricPrecision; text-rendering:geometricPrecision; image-rendering:optimizeQuality; fill-rule:evenodd; clip-rule:evenodd"
viewBox="0 0 21000 29700"
 xmlns:xlink="http://www.w3.org/1999/xlink">
 <defs>
  <style type="text/css">
   <![CDATA[
    .fil0 {fill:#FEFEFE;fill-rule:nonzero}
   ]]>
  </style>
 </defs>
 <g id="Layer_x0020_1">
  <metadata id="CorelCorpID_0Corel-Layer"/>
  <path class="fil0" d="M4642.9 8663l0 12373.99 11714.21 0 0 -12373.99 -11714.21 0zm10907.63 11521.39l0 0 -10101.04 0 0 -10669.11 10101.04 0 0 10669.11z"/>
  <path class="fil0" d="M8501.65 12075.63l0 2023.6 -1775.22 1088.47 0 2432.31 1970.28 1216.07 2.96 0c4.92,0 1810.43,-1077.01 1810.43,-1077.01l1744.35 1077.01 2019.12 -1231.53 0 -2416.85 -1777.42 -1088.47 0 -2023.6 -1986.05 -1211.72 -2008.45 1211.72zm0 3008.67l0 0 0 1459.02 1191.33 727.38 -977.59 596.07 -1184.57 -726.62 0 -1461.93 970.83 -593.92zm2008.45 -3247.86l0 0 1184.08 726c0,0 0,3479.88 0,3489.91 -7.84,4.62 -1176.69,718.33 -1184.08,723.08 -8.65,-4.75 -1193.22,-718.46 -1201.86,-723.08 0,-10.03 0,-3489.91 0,-3489.91l1201.86 -726zm1986.05 4709.03l0 0 0 -2.15 0 -1459.02 974.05 593.92 0 1461.93 -1190.57 726.62 -972.66 -596.07 1189.18 -725.23z"/>
 </g>
</svg>
